<svg width="23" height="27" viewBox="0 0 23 27" fill="none" xmlns="http://www.w3.org/2000/svg">
<path d="M22.8254 25.2949C22.002 25.7735 20.9971 26.1804 19.9155 26.4705C18.6071 26.8205 17.222 27 15.7914 27C13.8864 27 12.0965 26.6919 10.4637 26.0817C8.81683 25.4654 7.38981 24.562 6.21749 23.3984C5.31732 22.5459 4.57415 21.5288 4.00892 20.3771C3.47858 19.2973 3.09828 18.0887 2.88196 16.7815H0.40473C0.181431 16.7815 0 16.626 0 16.4345V14.5171C0 14.3256 0.181431 14.1701 0.40473 14.1701H2.60283V13.9308C2.60283 13.4372 2.63075 12.9765 2.66564 12.5158H0.40473C0.181431 12.5158 0 12.3603 0 12.1688V10.2125C0 10.0211 0.181431 9.8655 0.40473 9.8655H3.08083C3.36345 8.60315 3.82051 7.41259 4.44854 6.32373C5.09751 5.19599 5.91394 4.19688 6.87343 3.35331C7.47704 2.81487 8.126 2.33625 8.79939 1.92943C9.49022 1.51064 10.2299 1.15766 10.994 0.873477C11.7756 0.586306 12.6059 0.367937 13.4608 0.221361C14.333 0.074784 15.2541 0 16.2032 0C17.4592 0 18.6943 0.140594 19.8771 0.41879C20.7913 0.634168 21.6879 0.936295 22.466 1.29526C22.637 1.37303 22.7172 1.54354 22.6614 1.70208L21.7473 4.28662C21.7124 4.38832 21.6217 4.47208 21.5065 4.51097C21.4577 4.52593 21.4088 4.5349 21.36 4.5349C21.2867 4.5349 21.2169 4.51695 21.1506 4.48405C20.1667 3.97851 18.3629 3.43707 16.245 3.43707C13.9353 3.43707 12.0058 4.12508 10.5125 5.48017C10.509 5.48316 10.5055 5.48914 10.4986 5.49213C9.32624 6.46433 8.45746 7.97197 7.97248 9.86849H20.2191C20.4424 9.86849 20.6238 10.024 20.6238 10.2155V12.1718C20.6238 12.3633 20.4424 12.5188 20.2191 12.5188H7.44913C7.41424 12.9346 7.38632 13.3893 7.38632 13.8171V14.176H20.226C20.4493 14.176 20.6308 14.3316 20.6308 14.523V16.4405C20.6308 16.632 20.4493 16.7875 20.226 16.7875H7.77012C8.13996 18.678 8.92499 20.2066 10.1078 21.3344C11.6744 22.7463 13.7224 23.4941 16.2485 23.4941C18.7746 23.4941 20.8471 22.6207 21.6217 22.2467C21.6845 22.2168 21.7508 22.2019 21.8205 22.2019C21.8729 22.2019 21.9252 22.2108 21.9775 22.2288C22.0927 22.2707 22.1799 22.3544 22.2113 22.4591L22.9859 24.927C23.0312 25.0706 22.9649 25.2201 22.8219 25.3039L22.8254 25.2949Z" fill="#0C359E"/>
</svg>
