<?xml version="1.0" encoding="UTF-8"?><svg id="Calque_2" xmlns="http://www.w3.org/2000/svg" viewBox="0 0 114.94 50.58"><defs><style>.cls-1{fill:#fffdfd;stroke-width:0px;}</style></defs><g id="Calque_1-2"><path class="cls-1" d="m4.88,35.89c3.04,1.54,6.87,1.14,9.78-.98.63.24,3.38,9.34,13.26,9.75,3.28.14,6.33-.94,8.62-2.88,2.13,4.79,6.92,8.26,12.64,8.56,3.65.19,7.05-.95,9.71-2.97,1.71.81,3.62,1.32,5.64,1.42,4.1.21,7.88-1.25,10.66-3.76,1.48,3.1,4.64,5.32,8.4,5.52,4.51.23,8.45-2.54,9.78-6.52,1.36.81,2.94,1.32,4.64,1.41,3.66.19,6.94-1.59,8.76-4.4.7.36,1.49.59,2.33.63,3.07.16,5.69-2.13,5.84-5.11.15-2.98-2.22-5.53-5.29-5.69-.94-.05-1.82.13-2.62.49-1.59-2.77-4.57-4.71-8.06-4.89-2.38-.13-4.6.59-6.37,1.88.09-.53.15-1.07.18-1.61.39-7.79-5.8-14.45-13.82-14.86-2.31-.12-4.52.29-6.51,1.13C71.85,6.06,66.03.4,58.65.02c-7.1-.36-13.26,4.28-14.86,10.74-1.38-.51-2.87-.83-4.43-.91-4.88-.25-9.32,1.86-12.14,5.31-.37-.38-.95-.89-1.75-1.3-4.12-2.1-9.05.91-9.34,1.09-3.37,2.12-4.4,5.46-4.66,6.47-4.14-1.5-8.66.06-10.57,3.36-2.32,4.01.05,9.13,3.96,11.11Z"/></g></svg>