<?xml version="1.0" encoding="UTF-8"?><svg id="Calque_2" xmlns="http://www.w3.org/2000/svg" viewBox="0 0 164.38 83.73"><defs><style>.cls-1{fill:#fffdfd;stroke-width:0px;}</style></defs><g id="Calque_1-2"><path class="cls-1" d="m9.94,75.76c4.81,1.39,10.04-.56,13.34-4.93.97.16,8.13,13.65,22.1,10.9,4.64-.91,8.51-3.66,11.02-7.53,4.72,6.86,12.69,10.72,20.81,9.21,5.18-.96,9.52-3.93,12.51-8.06,2.69.7,5.54.84,8.41.31,5.81-1.08,10.57-4.7,13.55-9.63,3.2,4.4,8.43,6.84,13.76,5.86,6.39-1.19,10.91-6.95,11.32-13.71,2.19.82,4.6,1.08,7.01.63,5.18-.96,9.14-4.92,10.66-9.99,1.11.33,2.3.42,3.49.2,4.36-.81,7.18-5.34,6.31-10.12-.87-4.78-5.12-8-9.47-7.2-1.33.25-2.5.84-3.49,1.67-3.24-3.84-8.1-5.89-13.06-4.97-3.38.62-6.23,2.52-8.23,5.17-.06-.87-.18-1.74-.34-2.62-2.29-12.49-13.36-20.91-24.74-18.8-3.28.6-6.23,2.02-8.7,4.03-3.35-10.85-13.56-17.81-24.02-15.87-10.07,1.87-17,11.35-16.89,22.16-2.12-.34-4.32-.32-6.52.08-6.93,1.28-12.36,6.16-15.06,12.6-.66-.48-1.65-1.08-2.92-1.45-6.53-1.91-12.33,4.56-12.67,4.94-3.94,4.53-4.17,10.18-4.17,11.87-6.34-.96-12.1,3.08-13.57,8.98-1.78,7.16,3.39,14.46,9.59,16.25Z"/></g></svg>