<svg width="23" height="32" viewBox="0 0 23 32" fill="none" xmlns="http://www.w3.org/2000/svg">
<path d="M4.20413 0.538581L0.0667938 11.8148C-0.290781 12.7917 0.832399 13.7325 2.35922 13.7325H2.55446C3.14457 13.7325 3.6206 14.0475 3.6206 14.4348V31.2964C3.6206 31.6851 4.09883 31.9987 4.68675 31.9987H5.24176C5.83186 31.9987 6.3079 31.6837 6.3079 31.2964V0.703324C6.3079 -0.129062 4.50248 -0.270683 4.20413 0.538581Z" fill="#0C359E"/>
<path d="M21.8834 0.000732422H20.9818C20.7581 0.000732422 20.5343 7.94886 20.3105 7.94886H19.4133C19.1654 7.94886 18.9153 0.000732422 18.6675 0.000732422C17.8909 0.000732422 17.1165 0.000732422 16.3399 0.000732422C16.3399 0.000732422 15.1356 7.20896 15.1575 7.94886C15.1575 7.94886 14.4906 7.94163 14.0365 7.94886C13.8128 7.95464 13.589 0.000732422 13.3653 0.000732422H12.3891C11.7726 0.000732422 11.2725 0.328773 11.2725 0.73485V10.0067C11.2725 11.7654 13.2314 13.2221 15.7915 13.4822V31.114C15.7915 31.6025 16.3926 31.9999 17.1362 31.9999C17.8799 31.9999 18.481 31.6039 18.481 31.114V13.4822C21.0389 13.2221 23 11.7654 23 10.0067V0.73485C22.9978 0.328773 22.4999 0.000732422 21.8834 0.000732422Z" fill="#0C359E"/>
</svg>
