<svg width="29" height="42" viewBox="0 0 29 42" fill="none" xmlns="http://www.w3.org/2000/svg">
<path d="M28.8123 27.3716L28.6037 26.7747L28.5985 26.7553L28.5933 26.7465C27.2759 22.9836 26.2662 20.2015 25.743 18.777C25.4006 17.7663 25.1782 17.0972 25.1712 17.0761L25.1643 17.0567C24.6029 15.4262 24.0224 13.7622 23.435 12.0877C23.2542 11.5718 23.0717 11.0541 22.8892 10.5382V2H6.0169V10.5012C5.83789 11.0295 5.65888 11.5577 5.47813 12.0877C3.89482 16.7521 2.28892 21.4341 0.695194 26.0492C0.592653 26.3257 0.484898 26.6074 0.375405 26.8979L0.368453 26.9208C0.368453 26.9208 0.364977 26.9279 0.363239 26.9331C0.344121 26.9824 0.325003 27.0335 0.305885 27.0828L0.161633 27.4631H0.17206C0.0625674 27.6463 0 27.8664 0 28.1041V35.0082H0.295457V37.822C0.338907 38.2693 0.502277 38.6426 0.743857 38.845C0.867254 38.9472 1.00455 39 1.14533 39C1.16445 39 1.18183 39 1.20095 38.9982C1.61285 38.9577 1.92916 38.4841 1.99173 37.822V35.0082H27.0083V37.822C27.0517 38.2693 27.2134 38.6426 27.4567 38.845C27.5783 38.9472 27.7156 39 27.8564 39C27.8755 39 27.8946 39 27.912 38.9982C28.3239 38.9577 28.642 38.4841 28.7028 37.822V35.0082H29V28.0002C29 27.7625 28.9305 27.5441 28.8123 27.3716ZM6.49311 2.48246H22.413V10.3357H20.9427C20.9427 10.3357 20.9392 10.3287 20.9392 10.3251C20.9358 10.3128 20.9305 10.3022 20.9271 10.2917C20.9219 10.2758 20.9166 10.2617 20.9114 10.2477C20.9079 10.2371 20.9027 10.2248 20.8993 10.2142C20.8923 10.2001 20.8871 10.186 20.8819 10.1719C20.8767 10.1614 20.8714 10.1508 20.868 10.1385C20.861 10.1244 20.8541 10.1103 20.8489 10.0962C20.8436 10.0857 20.8384 10.0751 20.8332 10.0645C20.8263 10.0504 20.8193 10.0364 20.8124 10.0223C20.8071 10.0117 20.8019 10.0029 20.7967 9.99234C20.788 9.97649 20.7793 9.96064 20.7706 9.9448C20.7654 9.93775 20.762 9.92895 20.7567 9.92191C20.7446 9.89901 20.7307 9.87612 20.7168 9.85323C20.7116 9.84795 20.7081 9.84267 20.7046 9.83739C20.6942 9.81978 20.682 9.80217 20.6716 9.78632C20.6664 9.77752 20.6594 9.76871 20.6542 9.76167C20.6438 9.74758 20.6351 9.7335 20.6247 9.71941C20.6177 9.71061 20.6108 9.7018 20.6038 9.693C20.5934 9.68067 20.5847 9.66835 20.5743 9.65602C20.5673 9.64722 20.5604 9.63841 20.5517 9.62785C20.543 9.61728 20.5325 9.60496 20.5221 9.59263C20.5152 9.58383 20.5065 9.57502 20.4995 9.56622C20.4891 9.55566 20.4787 9.54333 20.4665 9.531C20.4595 9.52396 20.4509 9.51516 20.4439 9.50635C20.4317 9.49579 20.4213 9.48346 20.4091 9.4729L20.3866 9.45001C20.3726 9.43768 20.3587 9.42535 20.3466 9.41303C20.3396 9.40599 20.3327 9.4007 20.3257 9.39366C20.3066 9.37605 20.2857 9.35844 20.2649 9.34084C20.2406 9.32147 20.218 9.30386 20.1936 9.28625C19.8339 9.01509 19.3942 8.86718 18.9458 8.86718H10.5496C10.4905 8.86718 10.4314 8.8707 10.3723 8.87598C9.95691 8.9112 9.55717 9.07319 9.23217 9.34084C9.20958 9.35844 9.18872 9.37781 9.16787 9.39542C9.16265 9.4007 9.1557 9.40775 9.14875 9.41479C9.13484 9.42712 9.12094 9.43944 9.10704 9.45177L9.04795 9.51164C9.04795 9.51164 9.0323 9.52748 9.02535 9.53629C9.01318 9.54861 9.00276 9.56094 8.99059 9.57326C8.98364 9.58207 8.97669 9.58911 8.96974 9.59792C8.95757 9.612 8.94714 9.62433 8.93498 9.63841C8.92976 9.64546 8.92281 9.65426 8.91586 9.6613C8.90195 9.67891 8.88979 9.69652 8.87588 9.71413C8.87241 9.71765 8.86893 9.72293 8.86546 9.72822C8.84981 9.74935 8.83417 9.77224 8.81853 9.79513C8.81332 9.80217 8.80984 9.80921 8.80463 9.81626C8.7942 9.8321 8.78377 9.84795 8.77334 9.8638C8.76813 9.8726 8.76291 9.88141 8.7577 9.89197C8.74901 9.90606 8.73858 9.92014 8.73163 9.93599C8.72468 9.9448 8.71947 9.95536 8.71425 9.96416C8.7073 9.98001 8.69861 9.9941 8.68992 10.0099C8.68644 10.0188 8.68123 10.0293 8.67602 10.0381C8.66733 10.054 8.66037 10.0698 8.65342 10.0857C8.64821 10.0945 8.64473 10.105 8.63952 10.1138C8.63083 10.1314 8.62388 10.1508 8.61519 10.1702C8.61345 10.1755 8.60997 10.1825 8.6065 10.1895C8.59607 10.216 8.58564 10.2406 8.57695 10.267C8.57521 10.2723 8.57347 10.2794 8.57174 10.2846C8.56479 10.3022 8.55957 10.3198 8.55262 10.3357H6.49311V2.48246ZM7.41424 14.4384C7.03015 14.5388 6.44271 14.7325 5.76142 15.2308C5.3582 15.5283 4.97237 15.8946 4.61609 16.3225C4.57264 16.37 4.52919 16.4211 4.48921 16.4721C4.98801 15.0107 5.48681 13.5474 5.98214 12.0877C6.12639 11.6651 6.26891 11.2443 6.41142 10.8234C6.92934 10.8322 7.4351 10.8411 7.91999 10.8499C8.09727 10.8516 8.27628 10.8551 8.45355 10.8569C8.45355 10.9027 8.44834 10.9502 8.44834 10.996V13.0368C8.44834 13.4189 8.55088 13.7904 8.74206 14.1162C8.29366 14.2148 7.84874 14.3222 7.41424 14.4384ZM23.1274 14.986C22.5834 14.736 22.1576 14.581 21.9942 14.5423C21.551 14.4384 21.1078 14.3398 20.6698 14.25C20.9132 13.8961 21.047 13.4717 21.047 13.0368V10.8499C21.5162 10.8428 21.9977 10.8322 22.4843 10.8234C22.6338 11.2443 22.7815 11.6669 22.9292 12.0877C23.3637 13.3238 23.7947 14.5564 24.2171 15.7749C23.8955 15.4315 23.5375 15.1727 23.1274 14.986Z" fill="#0C359E"/>
</svg>
