<svg width="144" height="59" viewBox="0 0 144 59" fill="none" xmlns="http://www.w3.org/2000/svg">
<g clip-path="url(#clip0_247_18916)">
<path d="M1.93994 1.755V30.925H7.76994V1.755H1.93994Z" fill="#0C359E"/>
<path d="M29.1099 1.75499V26.295C29.1099 26.715 29.1099 27.125 29.0899 27.545C29.0799 27.965 29.0399 28.325 28.9899 28.625C28.9299 28.935 28.8299 29.175 28.6799 29.375C28.5299 29.575 28.2999 29.665 27.9899 29.665C27.6599 29.665 27.3699 29.515 27.1099 29.225C26.8599 28.935 26.6799 28.485 26.5699 27.865L23.8999 13.485C23.5399 11.565 23.2299 9.87499 22.9799 8.42499C22.7299 6.96499 22.4099 5.74499 22.0199 4.75499C21.6299 3.76499 21.1199 3.01499 20.4799 2.50499C19.8399 1.99499 18.9799 1.73499 17.8999 1.73499H11.9399V30.905H17.7699V3.42499H18.3999C18.8999 3.42499 19.3199 3.61499 19.6499 3.98499C19.9899 4.36499 20.2799 4.94499 20.5499 5.73499C20.8099 6.52499 21.0599 7.54499 21.2999 8.80499C21.5399 10.055 21.8199 11.545 22.1499 13.265L24.7799 27.435C25.0799 29.075 25.5599 30.175 26.2199 30.725C26.8699 31.275 27.6299 31.555 28.4899 31.555C29.4099 31.555 30.2599 31.425 31.0499 31.155C31.8399 30.895 32.5199 30.465 33.0899 29.865C33.6599 29.265 34.1099 28.495 34.4399 27.535C34.7799 26.575 34.9399 25.415 34.9399 24.055V1.75499H29.1099Z" fill="#0C359E"/>
<path d="M58.88 19.695C58.59 18.795 58.09 17.955 57.38 17.195C56.67 16.435 55.72 15.705 54.52 15.025C53.32 14.345 51.82 13.645 50.02 12.915C49.27 12.605 48.44 12.315 47.54 12.015C46.64 11.725 45.8 11.385 45.02 10.995C44.24 10.605 43.59 10.125 43.08 9.55499C42.57 8.98499 42.31 8.26499 42.31 7.40499C42.31 6.07499 42.81 5.00499 43.81 4.19499C44.81 3.38499 46.16 2.98499 47.85 2.98499C48.82 2.98499 49.66 3.10499 50.35 3.35499C51.04 3.60499 51.64 3.97499 52.14 4.48499C52.64 4.98499 53.07 5.60499 53.43 6.34499C53.79 7.08499 54.12 7.93499 54.43 8.90499L59.05 6.15499C58.24 4.43499 56.95 3.16499 55.18 2.34499C53.4 1.52499 50.97 1.11499 47.89 1.11499C46.81 1.11499 45.75 1.26499 44.7 1.57499C43.66 1.88499 42.73 2.36499 41.91 3.03499C41.09 3.70499 40.43 4.55499 39.93 5.59499C39.43 6.63499 39.18 7.89499 39.18 9.36499C39.18 10.255 39.29 11.085 39.52 11.865C39.74 12.645 40.16 13.395 40.77 14.135C41.38 14.875 42.23 15.595 43.33 16.305C44.43 17.015 45.84 17.745 47.56 18.495C49.31 19.245 50.74 19.855 51.85 20.325C52.96 20.795 53.84 21.245 54.48 21.665C55.12 22.075 55.56 22.525 55.81 22.995C56.06 23.465 56.19 24.095 56.19 24.875C56.19 25.515 56.07 26.125 55.83 26.705C55.59 27.285 55.21 27.795 54.68 28.225C54.15 28.655 53.47 29.005 52.62 29.265C51.77 29.535 50.74 29.665 49.52 29.665C48.57 29.665 47.76 29.535 47.08 29.285C46.4 29.035 45.79 28.665 45.27 28.155C44.74 27.655 44.29 27.035 43.92 26.305C43.54 25.565 43.21 24.715 42.9 23.745L38.27 26.495C39.1 28.215 40.53 29.485 42.56 30.305C44.59 31.125 47.29 31.535 50.69 31.535C51.8 31.535 52.87 31.345 53.9 30.975C54.93 30.595 55.85 30.045 56.65 29.305C57.46 28.565 58.1 27.655 58.59 26.575C59.08 25.495 59.32 24.235 59.32 22.825C59.32 21.625 59.17 20.585 58.88 19.675V19.695Z" fill="#0C359E"/>
<path d="M88.9701 9.61501C88.2801 7.73501 87.3301 6.13501 86.1101 4.80501C84.8901 3.46501 83.4101 2.44501 81.6701 1.71501C79.9301 0.99501 78.0101 0.63501 75.8901 0.63501C73.7701 0.63501 71.8601 0.99501 70.1201 1.71501C68.3801 2.43501 66.9101 3.46501 65.6801 4.80501C64.4601 6.13501 63.5101 7.74501 62.8301 9.61501C62.1401 11.495 61.8101 13.565 61.8101 15.845C61.8101 18.125 62.1501 20.195 62.8301 22.075C63.5101 23.955 64.4601 25.555 65.6801 26.885C66.0501 27.285 66.4401 27.655 66.8401 27.995C68.2401 29.165 69.5101 29.685 70.1201 29.965C73.8501 31.675 73.7101 33.745 75.7101 33.795C77.7301 33.845 77.7401 31.725 81.6601 29.965C82.2301 29.715 83.5301 29.175 84.9401 27.985C85.3501 27.645 85.7301 27.275 86.0901 26.885C87.3101 25.555 88.2601 23.945 88.9501 22.075C89.6301 20.195 89.9701 18.125 89.9701 15.845C89.9701 13.565 89.6301 11.495 88.9501 9.61501H88.9701ZM64.5301 15.345C64.6201 8.45501 69.1901 4.16501 69.9901 3.43501C69.0401 5.88501 67.7101 10.275 68.0101 15.835C68.3501 22.185 70.6301 26.885 71.9801 29.225C71.4301 28.855 64.4301 23.965 64.5401 15.335L64.5301 15.345ZM75.7701 29.725C74.5901 26.045 73.3101 20.445 73.7301 13.625C74.0001 9.34501 74.8601 5.70501 75.7701 2.89501C76.7001 5.80501 77.5901 9.64501 77.8101 14.195C78.1301 20.755 76.9101 26.145 75.7701 29.725ZM78.9101 29.235C80.2601 26.885 82.5501 22.195 82.8801 15.845C83.1701 10.285 81.8401 5.89501 80.8901 3.44501C81.7001 4.17501 86.2601 8.46501 86.3501 15.355C86.4601 23.975 79.4601 28.875 78.9101 29.245V29.235Z" fill="#0C359E"/>
<path d="M115.41 2.375V31.545H121.25V2.375H115.41Z" fill="#0C359E"/>
<path d="M124.16 2.375V4.045H131.03V31.545H136.86V4.045H143.74V2.375H124.15H124.16Z" fill="#0C359E"/>
<path d="M110.51 27.355C110.53 28.755 110.49 30.155 110.51 31.555H93.3401C93.3401 30.995 93.3401 30.445 93.3401 29.885V2.38501H99.1701V27.425C99.1701 28.125 99.3701 28.585 99.5901 28.885C99.6101 28.915 99.7801 29.145 100.04 29.345C100.88 29.985 102.14 29.875 102.52 29.845C103.96 29.705 106.87 28.875 110.51 27.365V27.355Z" fill="#0C359E"/>
<path d="M9.72 42.955V40.605H0V58.215H9.72V55.865H2.88V50.475H8.95V48.125H2.88V42.965H9.71L9.72 42.955Z" fill="#0C359E"/>
<path d="M26.8199 40.625H23.6099L19.8699 47.055L15.8699 40.625H12.6299L18.1199 49.425L12.6499 58.205H15.8599L19.5799 51.825L23.5499 58.205H26.7899L21.3199 49.425L26.8099 40.625H26.8199Z" fill="#0C359E"/>
<path d="M41.56 43.205C41.1 42.415 40.4 41.785 39.46 41.325C38.52 40.865 37.38 40.635 36.03 40.635H29.96V58.215H32.84V51.075H36.03C37.48 51.075 38.67 50.825 39.6 50.325C40.53 49.825 41.2 49.185 41.62 48.395C42.04 47.605 42.25 46.755 42.25 45.865C42.25 44.885 42.02 44.005 41.55 43.205H41.56ZM38.49 47.975C37.95 48.475 37.13 48.725 36.04 48.725H32.85V42.975H36.04C38.22 42.975 39.3 43.935 39.3 45.855C39.3 46.765 39.03 47.475 38.49 47.965V47.975Z" fill="#0C359E"/>
<path d="M54.73 42.955V40.605H45.01V58.215H54.73V55.865H47.9V50.475H53.97V48.125H47.9V42.965H54.73V42.955Z" fill="#0C359E"/>
<path d="M66.49 50.925C67.87 50.585 68.9 49.955 69.56 49.015C70.23 48.075 70.56 47.035 70.56 45.895C70.56 44.915 70.33 44.035 69.86 43.235C69.4 42.445 68.7 41.805 67.76 41.335C66.82 40.865 65.68 40.625 64.33 40.625H58.26V58.205H61.14V51.165H63.34L67.39 58.205H70.83L66.48 50.915L66.49 50.925ZM61.15 48.875V42.975H64.34C65.43 42.975 66.25 43.235 66.79 43.745C67.33 44.255 67.6 44.975 67.6 45.885C67.6 46.795 67.33 47.525 66.78 48.065C66.23 48.605 65.42 48.875 64.34 48.875H61.15Z" fill="#0C359E"/>
<path d="M74.26 40.625V58.205H77.14V40.625H74.26Z" fill="#0C359E"/>
<path d="M90.6499 42.955V40.605H80.9299V58.215H90.6499V55.865H83.8199V50.475H89.8899V48.125H83.8199V42.965H90.6499V42.955Z" fill="#0C359E"/>
<path d="M105.76 40.605V53.705L97.08 40.605H94.2V58.215H97.08V45.085L105.76 58.215H108.64V40.605H105.76Z" fill="#0C359E"/>
<path d="M123.27 55.175C122.46 55.635 121.52 55.855 120.46 55.855C119.3 55.855 118.26 55.585 117.35 55.055C116.44 54.525 115.73 53.765 115.21 52.785C114.7 51.805 114.44 50.665 114.44 49.365C114.44 48.065 114.7 46.925 115.21 45.945C115.72 44.965 116.44 44.215 117.35 43.695C118.26 43.175 119.3 42.915 120.46 42.915C121.52 42.915 122.46 43.145 123.27 43.595C124.08 44.055 124.71 44.745 125.17 45.675H128.64C127.98 43.985 126.92 42.685 125.46 41.765C124 40.845 122.34 40.385 120.46 40.385C118.82 40.385 117.32 40.765 115.94 41.535C114.56 42.305 113.48 43.365 112.68 44.735C111.88 46.105 111.48 47.645 111.48 49.365C111.48 51.085 111.88 52.625 112.68 53.995C113.48 55.365 114.56 56.425 115.93 57.195C117.3 57.965 118.81 58.345 120.46 58.345C122.33 58.345 124 57.885 125.46 56.975C126.92 56.065 127.98 54.765 128.64 53.075H125.17C124.71 54.005 124.08 54.695 123.27 55.155V55.175Z" fill="#0C359E"/>
<path d="M141.71 42.955V40.605H131.99V58.215H141.71V55.865H134.88V50.475H140.95V48.125H134.88V42.965H141.71V42.955Z" fill="#0C359E"/>
<path d="M72.75 34.795H78.7C78.76 36.405 77.94 37.795 76.72 38.265C76.59 38.315 75.71 38.645 74.74 38.265C73.54 37.795 72.74 36.425 72.76 34.795H72.75Z" fill="#0C359E"/>
</g>
<defs>
<clipPath id="clip0_247_18916">
<rect width="143.75" height="57.73" fill="white" transform="translate(0 0.63501)"/>
</clipPath>
</defs>
</svg>
