<svg width="22" height="34" viewBox="0 0 22 34" fill="none" xmlns="http://www.w3.org/2000/svg">
<g clip-path="url(#clip0_291_14187)">
<path d="M3.85124 9.21655C1.728 9.21655 0 10.9634 0 13.1097C0 15.256 1.728 17.0028 3.85124 17.0028C5.97448 17.0028 7.70248 15.256 7.70248 13.1097C7.70248 10.9634 5.97448 9.21655 3.85124 9.21655ZM5.31383 11.2799C4.63791 10.836 4.0059 10.7568 4.01736 10.7008C4.02881 10.6468 4.64364 10.6314 5.20882 10.9325C5.8752 11.2876 6.17879 11.9284 6.30099 12.243C6.10241 11.9632 5.78736 11.5907 5.31383 11.2799Z" fill="#0C359E"/>
<path d="M16.8676 0.5C14.0398 0.5 11.7371 2.82778 11.7371 5.68828C11.7371 8.54878 14.0398 10.8746 16.8676 10.8746C19.6954 10.8746 22 8.54878 22 5.68828C22 2.82778 19.6973 0.5 16.8676 0.5ZM18.8763 3.29681C18.0839 2.5672 17.2667 2.32593 17.2953 2.25452C17.3239 2.18503 18.1335 2.29891 18.8114 2.81813C19.6114 3.43192 19.8749 4.33909 19.9665 4.77917C19.7641 4.36805 19.43 3.8083 18.8744 3.29874L18.8763 3.29681Z" fill="#0C359E"/>
<path d="M10.8892 17.1265C6.42507 17.1265 2.7915 20.7996 2.7915 25.3123C2.7915 29.825 6.42507 33.5 10.8892 33.5C15.3534 33.5 18.9889 29.8269 18.9889 25.3123C18.9889 20.7976 15.3553 17.1265 10.8892 17.1265ZM13.9156 22.0426C12.4568 21.174 11.1184 21.0698 11.1394 20.9501C11.1604 20.8343 12.4473 20.7436 13.6636 21.3246C15.0975 22.0098 15.7925 23.3242 16.077 23.9747C15.6341 23.4053 14.9371 22.6525 13.9156 22.0445V22.0426Z" fill="#0C359E"/>
</g>
<defs>
<clipPath id="clip0_291_14187">
<rect width="22" height="33" fill="white" transform="translate(0 0.5)"/>
</clipPath>
</defs>
</svg>
