<svg width="36" height="33" viewBox="0 0 36 33" fill="none" xmlns="http://www.w3.org/2000/svg">
<path d="M34.447 12.2259H20.1539C20.1539 12.2259 20.1539 12.2244 20.1531 12.2236C20.0756 12.001 19.9664 11.7935 19.8278 11.6058L19.8361 11.5884L9.41033 0.67778C8.99233 0.24087 8.43652 0 7.84455 0C7.25258 0 6.696 0.24087 6.27876 0.67778L6.24638 0.711213C5.83215 1.14432 5.6047 1.71877 5.6047 2.32892C5.6047 2.93907 5.83215 3.51352 6.24638 3.94663L14.1581 12.2259H1.55506C1.40443 12.2259 0.878737 12.2593 0.456978 12.6856C0.0359717 13.1096 0.00132716 13.6369 0.000574015 13.7912C-0.00545112 14.0206 0.0359717 14.2372 0.124089 14.4355C0.194131 14.5928 0.287521 14.7242 0.392961 14.8344C0.822252 15.2827 1.45338 15.3785 1.54 15.3899L1.57464 15.3914C1.57238 15.4476 1.57615 15.5046 1.58669 15.5608L4.51114 30.9241C4.7401 32.1269 5.78772 33 7.00178 33H29.0621C30.2761 33 31.323 32.1269 31.5519 30.9241L34.4764 15.5608C34.4869 15.5046 34.4915 15.4476 34.4892 15.3914C34.9471 15.3785 35.3568 15.165 35.6332 14.8344C35.8622 14.5609 36 14.2083 36 13.8231V13.7927C36 12.928 35.3026 12.2251 34.4455 12.2251L34.447 12.2259ZM8.38982 28.7426C7.77224 28.7426 7.25182 28.33 7.15166 27.7624L5.82085 20.2111C5.70562 19.5561 6.18312 18.9209 6.8858 18.7955L6.91517 18.7902C6.99575 18.775 7.0786 18.7681 7.16069 18.7681C7.77827 18.7681 8.29869 19.1807 8.39886 19.7491L9.72966 27.3004L9.73192 27.3149C9.78163 27.6218 9.7033 27.9341 9.5105 28.1963C9.30865 28.4698 9.0074 28.6545 8.66321 28.716L8.63534 28.7213C8.55401 28.7358 8.47116 28.7434 8.38907 28.7434L8.38982 28.7426ZM13.2815 19.1686C13.5059 18.9186 13.8192 18.7643 14.1642 18.7339L14.1935 18.7317C14.2342 18.7279 14.2756 18.7263 14.317 18.7263C14.9873 18.7263 15.5341 19.1967 15.5876 19.8198L16.2489 27.4607C16.3061 28.1233 15.7744 28.713 15.0634 28.7753L15.0348 28.7776C14.9941 28.7814 14.9519 28.7829 14.9113 28.7829C14.241 28.7829 13.6942 28.3125 13.64 27.6895L12.9787 20.0492C12.9508 19.7293 13.0585 19.4163 13.2815 19.1678V19.1686ZM19.8165 27.4607L20.4777 19.8205C20.532 19.1974 21.078 18.7271 21.7491 18.7271C21.7905 18.7271 21.8326 18.7286 21.8748 18.7324L21.9004 18.7347C22.2461 18.7651 22.5602 18.9193 22.7846 19.1693C23.0008 19.4102 23.1092 19.7141 23.0889 20.0242L22.4254 27.6902C22.3711 28.3133 21.8251 28.7836 21.1548 28.7836C21.1126 28.7836 21.0705 28.7814 21.029 28.7776L21.0034 28.7753C20.2917 28.7122 19.7592 28.1226 19.8172 27.46L19.8165 27.4607ZM27.4014 28.716C27.0572 28.6545 26.7559 28.4698 26.5541 28.1963C26.3575 27.9303 26.28 27.6119 26.3349 27.2997L27.6657 19.7483C27.7659 19.18 28.2863 18.7674 28.9039 18.7674C28.9754 18.7674 29.0485 18.7735 29.1178 18.7841L29.1773 18.7947C29.8807 18.9209 30.359 19.5561 30.2437 20.2111L28.9129 27.7624C28.8128 28.3308 28.2923 28.7426 27.6748 28.7426C27.5934 28.7426 27.5106 28.735 27.4277 28.7206L27.4006 28.716H27.4014ZM19.9204 14.5799C19.9505 14.5449 19.9762 14.5138 20.001 14.4819L20.0153 14.4629C20.0402 14.4309 20.0628 14.3998 20.0831 14.3709C20.0876 14.3648 20.0914 14.3588 20.0959 14.3534C20.1177 14.3215 20.1396 14.2873 20.1637 14.2486L20.1788 14.2243C20.2029 14.184 20.2224 14.1483 20.2428 14.1118L20.2488 14.0997C20.2661 14.067 20.2834 14.0313 20.2993 13.9971C20.3038 13.9887 20.3075 13.9796 20.3106 13.972C20.3264 13.937 20.3422 13.8998 20.3587 13.858L20.3685 13.8329C20.3859 13.7881 20.3994 13.7501 20.4122 13.7114L20.416 13.7007C20.4295 13.6597 20.4401 13.6202 20.4491 13.5898L20.4559 13.564C20.468 13.5184 20.477 13.4796 20.4845 13.4424L20.489 13.4188C20.4973 13.3778 20.5041 13.3406 20.5094 13.3056L20.5139 13.2752C20.5184 13.2418 20.5229 13.2061 20.5267 13.1681C20.5267 13.1628 20.5282 13.1574 20.5282 13.1529L20.5297 13.1392C20.5335 13.102 20.5357 13.0647 20.5372 13.0275H34.447C34.8658 13.0275 35.2062 13.371 35.2062 13.7934V13.8238C35.2062 14.2463 34.8658 14.5898 34.447 14.5898H19.9114L19.9204 14.5799ZM6.81877 3.38966C6.68395 3.24833 6.57927 3.08344 6.50847 2.90412C6.43768 2.7248 6.40002 2.52952 6.40002 2.32892C6.40002 1.92696 6.54914 1.55084 6.81877 1.26818L6.85115 1.23475C7.11701 0.955883 7.47023 0.802395 7.84455 0.802395C8.21886 0.802395 8.57133 0.955883 8.83794 1.23475L18.8781 11.7411L19.0709 11.944C19.2208 12.1013 19.3322 12.2844 19.403 12.4895C19.5815 13.0017 19.4806 13.5761 19.1409 13.9872C19.1176 14.0153 19.0942 14.0419 19.0716 14.0655L19.0392 14.0989C18.8404 14.3071 18.5926 14.4461 18.3215 14.5024C18.2319 14.5214 18.1392 14.5305 18.0459 14.5305C17.6715 14.5305 17.3183 14.377 17.0517 14.0981L6.81877 3.38966ZM0.796645 13.7737C0.806436 13.3618 1.14686 13.0275 1.55506 13.0275H14.5761L16.1238 14.589H1.55506C1.13631 14.589 0.795892 14.2455 0.795892 13.8231V13.7737H0.796645Z" fill="#0C359E"/>
</svg>
