<svg width="29" height="24" viewBox="0 0 29 24" fill="none" xmlns="http://www.w3.org/2000/svg">
<g clip-path="url(#clip0_291_14203)">
<path d="M14.5908 18.7639C13.279 18.7639 12.2105 19.9399 12.2105 21.3835C12.2105 22.8271 13.279 24 14.5908 24C15.9027 24 16.9711 22.8271 16.9711 21.3835C16.9711 19.9399 15.9027 18.7639 14.5908 18.7639Z" fill="#0C359E"/>
<path d="M14.7458 12.3098C12.2587 12.3098 9.89318 13.3775 8.08569 15.3143L7.63159 15.7985L9.19571 17.7023L9.76853 17.0888C11.1279 15.6331 12.8968 14.8301 14.7428 14.8301C16.5889 14.8301 18.3549 15.6331 19.7142 17.0918L20.287 17.7083L21.8541 15.8046L21.4 15.3203C19.5895 13.3835 17.2241 12.3158 14.7399 12.3158L14.7458 12.3098Z" fill="#0C359E"/>
<path d="M28.5459 6.32481C24.7261 2.24662 19.737 0 14.5015 0C9.26599 0 4.27387 2.24662 0.454099 6.32481L0 6.80902L1.56412 8.71579L2.1399 8.10226C5.51151 4.50226 9.90114 2.5203 14.5015 2.5203C19.1018 2.5203 23.4915 4.50226 26.8631 8.10226L27.4388 8.71579L29 6.80902L28.5459 6.32481Z" fill="#0C359E"/>
<path d="M14.436 5.98804C10.5361 5.98804 6.8321 7.67526 4.00956 10.7369L3.5614 11.2211L5.12849 13.1279L5.7013 12.5053C8.07568 9.92789 11.1772 8.50834 14.4331 8.50834C17.6889 8.50834 20.7904 9.92789 23.1678 12.5053L23.7406 13.1279L25.3077 11.2211L24.8595 10.7369C22.037 7.67526 18.333 5.98804 14.4331 5.98804H14.436Z" fill="#0C359E"/>
</g>
<defs>
<clipPath id="clip0_291_14203">
<rect width="29" height="24" fill="white"/>
</clipPath>
</defs>
</svg>
